<?xml version="1.0" encoding="UTF-8"?>
<svg xmlns="http://www.w3.org/2000/svg" xmlns:xlink="http://www.w3.org/1999/xlink" width="300px" height="272px" viewBox="0 0 299 272" version="1.1">
<g id="surface1">
<path style=" stroke:none;fill-rule:nonzero;fill:rgb(0%,0%,0%);fill-opacity:1;" d="M 147.210938 10.222656 C 121.121094 11.613281 98.066406 19.378906 77.105469 33.839844 C 65.109375 42.121094 52.371094 54.800781 44.082031 66.707031 C 30.25 86.601562 22.410156 108.503906 20.285156 133.28125 C 19.832031 138.71875 20.089844 153.953125 20.765625 159.164062 C 23.605469 181.742188 31.507812 202.316406 44.242188 220.402344 C 47.050781 224.347656 50.917969 229.234375 53.242188 231.757812 L 55.015625 233.664062 L 56.046875 233.050781 C 56.625 232.726562 57.078125 232.371094 57.078125 232.273438 C 57.078125 232.175781 55.820312 230.65625 54.304688 228.878906 C 44.597656 217.554688 37.085938 205.101562 31.667969 191.285156 C 25.152344 174.660156 22.152344 157.640625 22.671875 140.074219 C 22.992188 129.5625 24.089844 121.378906 26.476562 111.835938 C 32.34375 88.347656 43.855469 68.128906 61.238281 50.757812 C 81.683594 30.34375 107.09375 17.855469 136.40625 13.847656 C 143.664062 12.84375 160.820312 12.777344 167.847656 13.683594 C 191.808594 16.820312 211.707031 24.78125 230.472656 38.691406 C 232.441406 40.148438 234.472656 41.699219 234.957031 42.121094 C 260.625 63.566406 276.941406 92.359375 281.652344 124.546875 C 283.554688 137.457031 283.359375 152.5 281.167969 165.472656 C 277.328125 188.214844 267.234375 209.953125 252.207031 227.746094 C 250.949219 229.234375 249.917969 230.558594 249.917969 230.65625 C 249.917969 230.785156 250.433594 231.140625 251.046875 231.496094 L 252.144531 232.078125 L 253.371094 230.65625 C 280.652344 198.792969 291.421875 156.671875 282.78125 115.652344 C 275.683594 81.878906 255.304688 51.761719 226.539062 32.542969 C 208.191406 20.25 186.488281 12.585938 164.945312 10.707031 C 160.496094 10.320312 150.53125 10.0625 147.210938 10.222656 Z M 147.210938 10.222656 "/>
<path style=" stroke:none;fill-rule:nonzero;fill:rgb(0%,0%,0%);fill-opacity:1;" d="M 148.339844 26.398438 C 148.082031 26.429688 145.277344 26.65625 142.082031 26.882812 L 136.34375 27.269531 L 136.570312 30.925781 C 136.792969 34.519531 136.761719 34.613281 136.117188 34.613281 C 135.535156 34.613281 135.441406 34.808594 135.441406 35.875 C 135.441406 38.074219 135.761719 39.109375 136.535156 39.207031 C 137.148438 39.304688 137.246094 39.5625 137.4375 42.832031 C 137.570312 44.773438 137.761719 46.421875 137.859375 46.519531 C 138.019531 46.679688 142.4375 46.617188 143.4375 46.453125 C 143.726562 46.390625 145.824219 46.226562 148.113281 46.097656 L 152.207031 45.871094 L 152.207031 44.027344 C 152.207031 41.214844 152.273438 41.277344 147.5 41.632812 C 145.210938 41.796875 143.242188 41.894531 143.113281 41.828125 C 142.953125 41.765625 142.855469 40.988281 142.855469 40.148438 L 142.855469 38.5625 L 146.566406 38.335938 L 150.273438 38.109375 L 150.273438 36.394531 C 150.273438 33.578125 150.273438 33.578125 147.242188 33.804688 C 145.824219 33.902344 144.179688 34.066406 143.632812 34.160156 C 142.664062 34.292969 142.597656 34.257812 142.40625 32.964844 C 142.277344 32.089844 142.308594 31.507812 142.535156 31.378906 C 142.726562 31.25 144.726562 31.054688 146.953125 30.960938 C 149.175781 30.828125 151.082031 30.699219 151.144531 30.601562 C 151.210938 30.539062 151.175781 29.535156 151.046875 28.339844 L 150.820312 26.203125 L 149.824219 26.234375 C 149.273438 26.269531 148.597656 26.332031 148.339844 26.398438 Z M 148.339844 26.398438 "/>
<path style=" stroke:none;fill-rule:nonzero;fill:rgb(0%,0%,0%);fill-opacity:1;" d="M 175.976562 28.371094 C 175.8125 28.664062 171.332031 45.386719 171.171875 46.390625 C 171.105469 46.90625 171.429688 47.132812 173.007812 47.621094 C 174.074219 47.941406 175.105469 48.203125 175.296875 48.203125 C 175.492188 48.203125 176.167969 46.292969 176.75 43.996094 C 177.363281 41.667969 177.941406 39.789062 178.039062 39.789062 C 178.167969 39.789062 178.363281 40.179688 178.492188 40.664062 C 179.039062 42.960938 181.039062 48.847656 181.265625 48.847656 C 181.394531 48.847656 183.070312 47.394531 185.003906 45.644531 C 186.90625 43.867188 188.519531 42.476562 188.550781 42.507812 C 188.585938 42.539062 188.132812 44.480469 187.550781 46.84375 C 186.941406 49.203125 186.550781 51.179688 186.679688 51.242188 C 187.132812 51.535156 190.9375 52.472656 191.066406 52.34375 C 191.226562 52.214844 196.066406 34.128906 196.066406 33.707031 C 196.066406 33.546875 195.386719 33.257812 194.550781 33.0625 C 193.679688 32.867188 192.742188 32.609375 192.453125 32.511719 C 192.035156 32.351562 190.90625 33.222656 187.972656 36.101562 C 185.84375 38.238281 183.910156 39.953125 183.714844 39.953125 C 183.390625 39.953125 182.167969 36.136719 180.585938 30.34375 C 180.296875 29.277344 180.101562 29.148438 178.714844 28.824219 C 177.878906 28.664062 176.976562 28.402344 176.652344 28.304688 C 176.363281 28.175781 176.070312 28.210938 175.976562 28.371094 Z M 175.976562 28.371094 "/>
<path style=" stroke:none;fill-rule:nonzero;fill:rgb(0%,0%,0%);fill-opacity:1;" d="M 118.347656 31.25 C 117.382812 31.507812 116.476562 31.832031 116.382812 31.960938 C 116.1875 32.15625 115.574219 36.425781 113.964844 48.460938 C 113.671875 50.660156 113.511719 52.535156 113.609375 52.632812 C 113.929688 52.925781 118.15625 51.695312 118.605469 51.179688 C 118.800781 50.886719 118.992188 50.078125 118.992188 49.367188 C 118.992188 48.621094 119.121094 47.878906 119.25 47.652344 C 119.378906 47.457031 120.992188 46.875 122.832031 46.390625 L 126.21875 45.515625 L 127.570312 47.070312 L 128.925781 48.65625 L 131.539062 48.039062 C 132.988281 47.714844 134.148438 47.394531 134.148438 47.328125 C 134.148438 47.230469 131.28125 43.480469 127.796875 38.949219 C 123.121094 32.964844 121.25 30.734375 120.765625 30.765625 C 120.414062 30.765625 119.316406 30.992188 118.347656 31.25 Z M 122.023438 39.304688 C 122.832031 40.46875 123.507812 41.472656 123.507812 41.539062 C 123.507812 41.699219 119.929688 42.445312 119.800781 42.3125 C 119.574219 42.085938 120.058594 37.203125 120.316406 37.203125 C 120.445312 37.203125 121.21875 38.140625 122.023438 39.304688 Z M 122.023438 39.304688 "/>
<path style=" stroke:none;fill-rule:nonzero;fill:rgb(0%,0%,0%);fill-opacity:1;" d="M 101.257812 37.882812 C 100.289062 38.433594 97.644531 39.824219 95.386719 40.957031 C 93.097656 42.121094 91.261719 43.121094 91.261719 43.1875 C 91.261719 43.609375 93.066406 46.90625 93.261719 46.90625 C 93.421875 46.90625 94.261719 46.550781 95.128906 46.097656 C 96 45.644531 96.871094 45.289062 97.03125 45.289062 C 97.195312 45.289062 98.742188 48.105469 100.453125 51.5 C 102.191406 54.929688 103.742188 57.90625 103.902344 58.132812 C 104.128906 58.390625 104.773438 58.199219 106.417969 57.324219 L 108.640625 56.160156 L 105.289062 49.59375 C 103.417969 45.96875 101.902344 42.960938 101.902344 42.863281 C 101.902344 42.765625 102.773438 42.28125 103.835938 41.730469 L 105.773438 40.761719 L 104.804688 38.820312 C 104.257812 37.753906 103.644531 36.878906 103.417969 36.910156 C 103.226562 36.910156 102.226562 37.363281 101.257812 37.882812 Z M 101.257812 37.882812 "/>
<path style=" stroke:none;fill-rule:nonzero;fill:rgb(0%,0%,0%);fill-opacity:1;" d="M 206.644531 43.414062 C 204.804688 44.871094 201.933594 47.167969 200.257812 48.492188 C 194.679688 52.890625 193.9375 53.539062 193.9375 53.863281 C 193.9375 54.152344 197.808594 56.613281 198.226562 56.613281 C 198.324219 56.613281 199.097656 56.03125 199.933594 55.320312 L 201.515625 53.992188 L 204.675781 55.773438 C 206.996094 57.066406 207.835938 57.710938 207.769531 58.132812 C 207.738281 58.457031 207.609375 59.394531 207.511719 60.203125 L 207.289062 61.691406 L 209.578125 62.890625 C 210.804688 63.535156 211.964844 64.054688 212.09375 64.054688 C 212.351562 64.054688 214.640625 43.414062 214.414062 43.21875 C 214.351562 43.1875 213.316406 42.605469 212.125 41.957031 L 209.964844 40.792969 Z M 209.285156 48.105469 C 209.285156 48.976562 208.675781 52.472656 208.511719 52.632812 C 208.417969 52.730469 207.609375 52.375 206.675781 51.890625 L 205.03125 50.984375 L 206.902344 49.269531 C 208.964844 47.425781 209.285156 47.261719 209.285156 48.105469 Z M 209.285156 48.105469 "/>
<path style=" stroke:none;fill-rule:nonzero;fill:rgb(0%,0%,0%);fill-opacity:1;" d="M 82.652344 48.882812 C 77.328125 51.535156 75.167969 57.195312 77.523438 62.371094 C 79.910156 67.578125 86.132812 70.003906 91.003906 67.644531 C 94.226562 66.089844 96.742188 62.566406 96.742188 59.652344 C 96.742188 58.425781 96.484375 58.296875 93.679688 58.199219 L 91.746094 58.101562 L 91.648438 59.167969 C 91.519531 60.496094 89.519531 62.566406 88.101562 62.855469 C 87.003906 63.082031 85.425781 62.695312 84.261719 61.949219 C 82.394531 60.6875 81.617188 57.582031 82.78125 55.640625 C 83.488281 54.414062 85.425781 53.378906 87.003906 53.378906 L 88.292969 53.378906 L 88.617188 51.046875 C 89.035156 48.234375 89.003906 48.203125 86.101562 48.203125 C 84.617188 48.203125 83.617188 48.394531 82.652344 48.882812 Z M 82.652344 48.882812 "/>
<path style=" stroke:none;fill-rule:nonzero;fill:rgb(0%,0%,0%);fill-opacity:1;" d="M 220.089844 58.8125 C 216.734375 62.824219 213.964844 66.222656 213.964844 66.351562 C 213.964844 66.671875 217.316406 69.554688 217.671875 69.554688 C 217.832031 69.554688 218.574219 68.742188 219.347656 67.773438 C 220.089844 66.804688 220.863281 65.996094 221.023438 65.996094 C 221.1875 65.996094 221.574219 66.222656 221.894531 66.511719 C 222.410156 66.996094 222.410156 67.125 221.378906 68.839844 C 220.027344 71.203125 219.605469 72.722656 219.605469 75.539062 C 219.605469 77.253906 219.800781 78.222656 220.378906 79.453125 C 221.1875 81.199219 222.992188 83.464844 223.605469 83.464844 C 224.023438 83.464844 226.699219 80.550781 226.699219 80.035156 C 226.699219 79.839844 226.410156 79.417969 226.023438 79.0625 C 223.925781 77.15625 223.894531 74.113281 225.925781 71.136719 C 226.667969 70.070312 226.894531 69.941406 228.699219 69.746094 C 234.117188 69.195312 237.117188 64.148438 234.761719 59.523438 C 234.019531 58.132812 230.410156 54.671875 226.699219 51.855469 C 226.3125 51.566406 225.152344 52.730469 220.089844 58.8125 Z M 229.28125 60.042969 C 230.441406 61.304688 230.601562 61.660156 230.441406 62.53125 C 229.957031 64.925781 227.796875 65.445312 225.476562 63.730469 C 224.734375 63.179688 224.121094 62.597656 224.121094 62.402344 C 224.121094 61.886719 227.054688 58.554688 227.507812 58.554688 C 227.734375 58.554688 228.539062 59.234375 229.28125 60.042969 Z M 229.28125 60.042969 "/>
<path style=" stroke:none;fill-rule:nonzero;fill:rgb(0%,0%,0%);fill-opacity:1;" d="M 145.921875 59.234375 C 135.472656 60.140625 125.347656 62.953125 115.929688 67.613281 C 107.253906 71.882812 100.515625 76.703125 93.742188 83.398438 C 80.585938 96.402344 72.363281 112.546875 69.492188 131.019531 C 68.75 135.644531 68.492188 147.128906 69.011719 151.785156 C 71.171875 171.746094 79.167969 188.828125 92.9375 202.738281 C 94.90625 204.742188 96.613281 206.394531 96.742188 206.394531 C 96.839844 206.394531 97.195312 206.199219 97.515625 205.972656 C 98 205.617188 97.710938 205.230469 94.550781 202.027344 C 85.296875 192.613281 78.585938 181.808594 74.492188 169.546875 C 69.300781 154.050781 68.976562 136.160156 73.589844 120.375 C 77.492188 107.015625 84.617188 94.949219 94.324219 85.242188 C 103.320312 76.21875 113.058594 69.910156 124.28125 65.863281 C 134.988281 61.949219 143.5 60.59375 155.078125 60.914062 C 168.140625 61.269531 177.84375 63.664062 189.453125 69.390625 C 205.222656 77.1875 218.574219 90.484375 226.570312 106.464844 C 233.054688 119.40625 236.117188 134.511719 235.117188 148.648438 C 234.277344 160.261719 231.859375 169.417969 226.863281 179.703125 C 222.992188 187.695312 217.863281 194.972656 211.769531 201.152344 C 208.675781 204.324219 208.511719 204.550781 209.125 204.96875 C 209.449219 205.230469 209.835938 205.421875 209.964844 205.421875 C 210.09375 205.421875 211.511719 204 213.15625 202.253906 C 226.152344 188.441406 233.375 173.65625 236.277344 154.957031 C 237.085938 149.75 237.050781 137.261719 236.246094 131.988281 C 234.699219 121.765625 232.085938 113.515625 227.828125 105.171875 C 216.125 82.203125 194.613281 65.769531 169.460938 60.65625 C 162.527344 59.234375 152.691406 58.652344 145.921875 59.234375 Z M 145.921875 59.234375 "/>
<path style=" stroke:none;fill-rule:nonzero;fill:rgb(0%,0%,0%);fill-opacity:1;" d="M 65.980469 63.4375 C 65.171875 64.34375 64.496094 65.183594 64.496094 65.316406 C 64.496094 65.445312 65.71875 66.609375 67.234375 67.902344 C 68.75 69.230469 69.976562 70.394531 69.976562 70.492188 C 69.976562 70.621094 67.558594 70.910156 64.59375 71.136719 L 59.175781 71.527344 L 57.820312 73.046875 C 57.046875 73.855469 56.433594 74.632812 56.464844 74.730469 C 56.464844 74.824219 57.949219 76.121094 59.722656 77.640625 C 61.527344 79.160156 64.785156 81.976562 66.976562 83.917969 L 70.976562 87.410156 L 72.558594 85.695312 C 73.429688 84.726562 74.136719 83.851562 74.167969 83.722656 C 74.167969 83.625 72.429688 82.007812 70.300781 80.195312 C 68.171875 78.351562 66.558594 76.765625 66.6875 76.636719 C 66.816406 76.539062 70.105469 76.183594 74.007812 75.894531 C 81.554688 75.3125 82.554688 75.183594 82.554688 74.792969 C 82.554688 74.566406 80.617188 72.820312 73.039062 66.316406 C 71.105469 64.636719 69.140625 62.921875 68.6875 62.53125 C 68.234375 62.113281 67.785156 61.789062 67.6875 61.789062 C 67.558594 61.789062 66.785156 62.53125 65.980469 63.4375 Z M 65.980469 63.4375 "/>
<path style=" stroke:none;fill-rule:nonzero;fill:rgb(0%,0%,0%);fill-opacity:1;" d="M 238.601562 71.460938 C 236.148438 72.238281 233.730469 74.308594 232.601562 76.636719 C 231.375 79.097656 231.3125 83.140625 232.410156 85.40625 C 234.441406 89.511719 239.601562 92.164062 243.050781 90.902344 C 244.210938 90.449219 248.308594 87.636719 248.308594 87.28125 C 248.308594 86.957031 244.664062 81.878906 244.4375 81.878906 C 244.339844 81.878906 243.597656 82.363281 242.726562 83.011719 C 241.40625 83.980469 241.246094 84.207031 241.535156 84.757812 C 242.082031 85.792969 241.019531 85.953125 239.40625 85.113281 C 236.34375 83.464844 236.148438 79.160156 239.050781 77.347656 C 240.339844 76.539062 242.4375 76.445312 243.792969 77.15625 C 244.921875 77.738281 246.050781 79.515625 246.050781 80.777344 C 246.050781 81.683594 246.144531 81.75 248.082031 82.136719 C 249.175781 82.363281 250.402344 82.621094 250.757812 82.6875 C 251.726562 82.945312 251.917969 81.847656 251.402344 79.355469 C 250.691406 75.859375 248.046875 72.820312 244.726562 71.65625 C 243.308594 71.136719 240.019531 71.039062 238.601562 71.460938 Z M 238.601562 71.460938 "/>
<path style=" stroke:none;fill-rule:nonzero;fill:rgb(0%,0%,0%);fill-opacity:1;" d="M 136.472656 78.773438 C 136.34375 80.617188 136.054688 81.230469 135.40625 81.035156 C 135.054688 80.90625 134.796875 80.972656 134.796875 81.167969 C 134.796875 81.359375 135.019531 81.523438 135.277344 81.523438 C 136.085938 81.523438 136.40625 82.914062 136.085938 84.820312 C 135.921875 85.761719 135.535156 88.867188 135.277344 91.710938 C 134.570312 98.894531 133.925781 103.035156 133.375 104.070312 C 132.988281 104.847656 132.988281 105.039062 133.375 105.398438 C 134.019531 105.980469 133.988281 109.539062 133.34375 109.925781 C 132.925781 110.152344 132.925781 110.378906 133.214844 111.21875 C 133.667969 112.546875 133.34375 114.390625 132.601562 114.679688 C 130.859375 115.394531 122.800781 118.109375 122.734375 118.011719 C 122.316406 117.464844 121.832031 115.621094 121.734375 114.226562 C 121.636719 112.644531 121.25 111.480469 121.25 112.675781 C 121.25 112.933594 121.058594 113.257812 120.863281 113.355469 C 120.574219 113.484375 120.542969 113.613281 120.800781 113.710938 C 121.476562 114.035156 120.285156 118.175781 118.1875 122.703125 L 117.316406 124.546875 L 116.21875 123.222656 C 115.125 121.894531 115.125 121.863281 115.089844 118.464844 L 115.027344 115.003906 L 114.769531 117.269531 C 114.609375 118.5 114.542969 119.855469 114.640625 120.277344 C 114.867188 121.25 113.964844 123.1875 113.15625 123.414062 C 112.800781 123.546875 112.578125 123.804688 112.609375 124 C 112.640625 124.222656 112.285156 125 111.800781 125.746094 C 111.320312 126.519531 110.933594 127.234375 110.933594 127.394531 C 110.933594 127.523438 110.511719 128.332031 109.964844 129.175781 C 109.449219 130.015625 108.996094 131.019531 108.996094 131.375 C 108.996094 132.28125 104.515625 140.886719 102.578125 143.699219 C 101.710938 144.992188 100.257812 146.835938 99.386719 147.777344 C 97.9375 149.328125 97.871094 149.523438 98.417969 149.8125 C 98.96875 150.105469 99 150.429688 98.808594 153.597656 C 98.679688 155.605469 98.417969 157.351562 98.160156 157.773438 C 97.742188 158.449219 97.773438 158.484375 98.773438 158.582031 C 99.675781 158.675781 99.804688 158.773438 99.742188 159.550781 C 99.675781 160.683594 98.773438 161.878906 97.550781 162.558594 L 96.582031 163.109375 L 96.550781 172.945312 L 96.484375 182.777344 L 98.066406 182.777344 C 99.226562 182.777344 99.644531 182.90625 99.644531 183.230469 C 99.644531 183.554688 100.289062 183.75 102 183.910156 C 103.320312 184.039062 104.644531 184.074219 105 183.976562 C 105.417969 183.878906 105.320312 183.8125 104.675781 183.78125 L 103.742188 183.75 L 103.902344 180.09375 C 104 177.214844 104.160156 176.179688 104.675781 175.335938 C 105 174.753906 105.449219 174.207031 105.675781 174.140625 C 106.386719 173.882812 107.707031 179.480469 107.707031 182.679688 C 107.707031 183.878906 107.609375 184.074219 106.996094 184.074219 C 106.609375 184.074219 106.386719 184.136719 106.449219 184.203125 C 106.515625 184.265625 115.15625 184.203125 125.605469 184.074219 C 140.566406 183.847656 145.082031 183.683594 146.695312 183.328125 C 149.242188 182.714844 150.820312 182.941406 164.464844 185.558594 C 170.074219 186.628906 174.910156 187.40625 176.234375 187.40625 C 178.425781 187.4375 187.199219 186.917969 194.292969 186.335938 C 196.257812 186.175781 199.195312 186.144531 200.839844 186.273438 L 203.835938 186.5 L 203.707031 183.585938 C 203.644531 182 203.386719 179.964844 203.191406 179.121094 C 202.933594 178.21875 202.835938 176.277344 202.902344 174.433594 C 203 171.488281 202.964844 171.261719 202.257812 170.710938 C 201.871094 170.386719 201.320312 169.707031 201.097656 169.222656 C 200.453125 167.996094 200.128906 162.398438 200.546875 159.226562 C 200.96875 155.925781 200.742188 155.28125 198.160156 152.5625 C 196.484375 150.785156 196.386719 150.558594 196.582031 149.488281 C 196.710938 148.84375 196.9375 148.226562 197.097656 148.132812 C 197.257812 148.035156 197.03125 147.324219 196.582031 146.515625 C 195.515625 144.507812 194.226562 140.367188 191.421875 129.722656 C 186.808594 112.15625 184.457031 103.457031 184.132812 102.875 C 183.683594 102 183.714844 99.089844 184.230469 98.863281 C 184.554688 98.699219 184.554688 98.636719 184.230469 98.472656 C 184.003906 98.375 183.8125 98.019531 183.8125 97.699219 C 183.8125 97.375 183.683594 96.984375 183.488281 96.890625 C 183.328125 96.792969 183.167969 96.984375 183.167969 97.339844 C 183.167969 97.730469 182.972656 98.019531 182.78125 98.019531 C 182.488281 98.019531 182.523438 98.117188 182.84375 98.34375 C 183.8125 98.960938 182.941406 106.722656 181.746094 107.921875 C 181.554688 108.148438 180.523438 108.535156 179.457031 108.792969 C 175.878906 109.699219 158.753906 114.519531 157.367188 115.003906 C 155.660156 115.621094 155.757812 115.621094 155.757812 114.679688 C 155.757812 114.226562 155.304688 112.449219 154.789062 110.734375 C 154.242188 108.988281 153.59375 106.886719 153.335938 106.042969 C 152.371094 102.96875 152.207031 102.648438 151.855469 103.292969 C 151.660156 103.585938 151.628906 104.003906 151.726562 104.167969 C 151.984375 104.621094 151.371094 105.6875 149.757812 107.597656 C 148.402344 109.214844 148.273438 109.277344 143.40625 110.929688 C 140.695312 111.835938 138.40625 112.578125 138.308594 112.578125 C 138.246094 112.578125 138.148438 110.992188 138.085938 109.050781 C 137.988281 106.074219 138.050781 105.527344 138.503906 105.332031 C 138.953125 105.171875 138.953125 105.074219 138.503906 104.167969 C 137.859375 102.90625 137.117188 95.335938 136.859375 87.734375 C 136.664062 82.136719 136.664062 82.105469 137.34375 82.332031 C 138.179688 82.589844 138.214844 82.136719 137.40625 81.621094 C 136.921875 81.328125 136.730469 80.777344 136.632812 79.515625 C 136.570312 78.578125 136.503906 78.222656 136.472656 78.773438 Z M 136.054688 107.886719 C 136.085938 108.859375 135.601562 109.957031 135.3125 109.632812 C 135.214844 109.570312 135.246094 108.632812 135.34375 107.5625 C 135.472656 106.207031 135.601562 105.816406 135.792969 106.269531 C 135.921875 106.625 136.054688 107.335938 136.054688 107.886719 Z M 136.957031 109.085938 C 136.890625 109.503906 136.828125 109.183594 136.828125 108.371094 C 136.828125 107.5625 136.890625 107.242188 136.957031 107.628906 C 137.019531 108.050781 137.019531 108.695312 136.957031 109.085938 Z M 186.199219 116.007812 C 186.714844 119.273438 187.359375 133.445312 187.359375 140.851562 C 187.359375 144.667969 187.328125 144.929688 186.714844 144.929688 C 186.261719 144.929688 186.070312 144.636719 185.941406 143.859375 C 185.648438 142.015625 185.035156 113.289062 185.261719 112.902344 C 185.617188 112.320312 185.714844 112.578125 186.199219 116.007812 Z M 183.390625 132.894531 C 183.488281 138.265625 183.457031 143.019531 183.359375 143.472656 C 183.230469 143.925781 182.941406 144.28125 182.683594 144.28125 C 182.261719 144.28125 182.199219 143.3125 182.132812 138.199219 C 182.039062 130.792969 182.199219 121.894531 182.457031 121.476562 C 182.972656 120.601562 183.261719 124.03125 183.390625 132.894531 Z M 189.777344 129.917969 C 190.035156 132.925781 190.261719 137.683594 190.261719 140.496094 C 190.261719 145.21875 190.230469 145.609375 189.710938 145.511719 C 189.164062 145.414062 189.132812 144.605469 189.035156 134.769531 C 189.003906 128.914062 189.035156 124.191406 189.132812 124.289062 C 189.261719 124.386719 189.550781 126.941406 189.777344 129.917969 Z M 179.972656 133.183594 C 180.328125 135.386719 180.328125 143.632812 179.972656 143.632812 C 178.8125 143.632812 178.652344 143.246094 178.652344 140.269531 C 178.652344 135.480469 179.039062 130.953125 179.394531 131.308594 C 179.585938 131.503906 179.84375 132.34375 179.972656 133.183594 Z M 192.808594 142.730469 C 192.839844 145.640625 192.742188 146.222656 192.355469 146.222656 C 191.9375 146.222656 191.875 145.542969 191.875 141.921875 C 191.875 137.003906 192.195312 135.03125 192.550781 137.648438 C 192.679688 138.523438 192.808594 140.820312 192.808594 142.730469 Z M 166.171875 159.550781 C 166.367188 167.023438 166.367188 167.25 165.753906 167.25 C 165.140625 167.25 165.109375 166.960938 165.109375 159.097656 C 165.109375 152.144531 165.171875 151.011719 165.558594 151.398438 C 165.882812 151.785156 166.042969 153.695312 166.171875 159.550781 Z M 164.464844 159.484375 C 164.464844 166.214844 164.398438 167.574219 164.011719 167.574219 C 163.398438 167.574219 163.078125 163.59375 163.238281 157.707031 C 163.335938 153.761719 163.722656 151.398438 164.300781 151.398438 C 164.398438 151.398438 164.464844 155.023438 164.464844 159.484375 Z M 185.425781 159.519531 C 185.425781 164.566406 185.328125 165.988281 185.035156 165.890625 C 184.714844 165.761719 184.585938 164.113281 184.519531 159.390625 C 184.457031 153.855469 184.519531 153.015625 184.941406 153.015625 C 185.359375 153.015625 185.425781 153.921875 185.425781 159.519531 Z M 148.015625 161.589844 C 148.015625 167.832031 147.953125 168.867188 147.53125 168.867188 C 147.113281 168.867188 147.050781 167.929688 147.050781 162.234375 C 147.050781 157.511719 147.179688 155.410156 147.4375 154.957031 C 147.660156 154.601562 147.886719 154.308594 147.917969 154.308594 C 147.984375 154.308594 148.015625 157.578125 148.015625 161.589844 Z M 149.628906 161.105469 C 149.789062 167.089844 149.695312 168.578125 149.046875 168.804688 C 148.757812 168.898438 148.660156 167.21875 148.660156 161.523438 C 148.695312 155.667969 148.757812 154.277344 149.046875 154.796875 C 149.304688 155.183594 149.5 157.609375 149.628906 161.105469 Z M 183.777344 160.359375 C 183.746094 164.855469 183.683594 165.4375 183.457031 163.691406 C 183.230469 161.816406 183.390625 154.957031 183.683594 154.957031 C 183.746094 154.957031 183.777344 157.382812 183.777344 160.359375 Z M 187.101562 159.777344 C 187.421875 164.046875 187.230469 166.28125 186.519531 166.28125 C 186.132812 166.28125 186.070312 165.308594 186.070312 160.519531 C 186.101562 156.21875 186.164062 154.957031 186.457031 155.410156 C 186.648438 155.734375 186.941406 157.707031 187.101562 159.777344 Z M 128.992188 163.691406 C 128.992188 167.996094 128.863281 170.484375 128.667969 170.484375 C 128.472656 170.484375 128.34375 168.1875 128.34375 164.210938 C 128.34375 158.582031 128.472656 156.898438 128.863281 156.898438 C 128.925781 156.898438 128.992188 159.9375 128.992188 163.691406 Z M 129.925781 164.242188 C 129.957031 168.222656 129.828125 170.484375 129.636719 170.484375 C 129.441406 170.484375 129.3125 167.996094 129.34375 163.59375 C 129.34375 159.484375 129.472656 156.996094 129.636719 157.382812 C 129.796875 157.738281 129.925781 160.84375 129.925781 164.242188 Z M 129.925781 164.242188 "/>
<path style=" stroke:none;fill-rule:nonzero;fill:rgb(0%,0%,0%);fill-opacity:1;" d="M 47.144531 89.773438 C 46.566406 90.9375 46.113281 92.035156 46.113281 92.199219 C 46.113281 92.457031 55.402344 104.101562 58.402344 107.628906 L 59.269531 108.664062 L 60.59375 106.140625 L 61.882812 103.617188 L 60.625 102.195312 C 59.917969 101.417969 59.335938 100.671875 59.335938 100.578125 C 59.335938 100.480469 60.078125 98.960938 60.980469 97.210938 L 62.65625 94.074219 L 64.65625 94.300781 L 66.65625 94.496094 L 67.976562 92.132812 C 68.6875 90.839844 69.171875 89.675781 69.074219 89.578125 C 68.882812 89.414062 50.046875 87.636719 48.695312 87.667969 C 48.402344 87.667969 47.757812 88.574219 47.144531 89.773438 Z M 57.722656 93.589844 C 57.722656 94.074219 56.109375 96.726562 55.851562 96.695312 C 55.5625 96.664062 52.5625 93.234375 52.5625 92.910156 C 52.5625 92.78125 53.722656 92.8125 55.144531 92.972656 C 56.5625 93.136719 57.722656 93.425781 57.722656 93.589844 Z M 57.722656 93.589844 "/>
<path style=" stroke:none;fill-rule:nonzero;fill:rgb(0%,0%,0%);fill-opacity:1;" d="M 249.597656 95.109375 C 247.015625 95.238281 243.855469 95.367188 242.597656 95.402344 C 239.824219 95.433594 239.792969 95.464844 241.308594 98.539062 L 242.339844 100.671875 L 244.339844 100.511719 L 246.308594 100.351562 L 247.597656 103.003906 C 249.5625 107.078125 249.53125 106.949219 247.984375 108.535156 L 246.597656 109.957031 L 247.757812 112.417969 C 248.402344 113.777344 249.082031 114.84375 249.210938 114.777344 C 249.433594 114.714844 260.109375 102.96875 262.753906 99.863281 C 263.207031 99.347656 263.171875 99.089844 262.171875 97.050781 L 261.078125 94.785156 L 257.691406 94.851562 C 255.820312 94.882812 252.175781 95.011719 249.597656 95.109375 Z M 254.917969 101.578125 C 253.851562 102.648438 252.917969 103.519531 252.820312 103.519531 C 252.726562 103.519531 252.371094 102.839844 252.015625 102 C 251.660156 101.160156 251.339844 100.351562 251.273438 100.253906 C 251.144531 99.960938 252.5625 99.769531 255.078125 99.703125 L 256.820312 99.636719 Z M 254.917969 101.578125 "/>
<path style=" stroke:none;fill-rule:nonzero;fill:rgb(0%,0%,0%);fill-opacity:1;" d="M 151.5625 100.414062 C 151.757812 100.671875 152.144531 100.804688 152.433594 100.707031 C 152.820312 100.542969 152.820312 100.480469 152.464844 100.253906 C 152.242188 100.089844 151.855469 99.960938 151.597656 99.960938 C 151.242188 99.960938 151.242188 100.058594 151.5625 100.414062 Z M 151.5625 100.414062 "/>
<path style=" stroke:none;fill-rule:nonzero;fill:rgb(0%,0%,0%);fill-opacity:1;" d="M 40.375 107.824219 C 38.148438 110.734375 36.761719 114.261719 36.761719 116.945312 C 36.761719 120.117188 39.308594 122.929688 42.210938 122.929688 C 44.792969 122.929688 46.4375 121.605469 49.597656 116.882812 C 50.886719 114.972656 51.855469 114.261719 52.5625 114.679688 C 53.53125 115.261719 52.175781 118.691406 50.046875 121.085938 C 47.789062 123.609375 47.789062 123.351562 50.015625 124.871094 L 51.984375 126.230469 L 53.5625 124.675781 C 54.464844 123.773438 55.722656 121.992188 56.496094 120.503906 C 57.625 118.304688 57.851562 117.558594 57.980469 115.457031 C 58.207031 111.703125 56.917969 109.667969 53.628906 108.695312 C 52.371094 108.308594 52.144531 108.339844 50.433594 109.183594 C 48.984375 109.894531 48.210938 110.605469 46.46875 112.835938 C 43.050781 117.300781 42.566406 117.691406 41.921875 116.492188 C 41.46875 115.585938 42.246094 113.582031 44.082031 111.027344 L 45.566406 108.921875 L 44.597656 108.082031 C 44.019531 107.628906 43.148438 106.980469 42.632812 106.691406 L 41.664062 106.109375 Z M 40.375 107.824219 "/>
<path style=" stroke:none;fill-rule:nonzero;fill:rgb(0%,0%,0%);fill-opacity:1;" d="M 262.171875 114.714844 C 259.59375 115.296875 255.59375 116.265625 253.273438 116.816406 L 249.015625 117.785156 L 249.597656 120.082031 C 249.917969 121.3125 250.242188 122.414062 250.339844 122.476562 C 250.402344 122.574219 251.53125 122.378906 252.789062 122.089844 C 254.078125 121.796875 255.175781 121.636719 255.238281 121.703125 C 255.304688 121.734375 255.433594 122.1875 255.5625 122.640625 C 255.757812 123.449219 255.660156 123.546875 254.144531 124.0625 C 250.984375 125.097656 247.886719 128.074219 246.855469 131.019531 C 246.339844 132.507812 246.210938 136.421875 246.660156 137.132812 C 246.953125 137.585938 247.144531 137.554688 250.015625 136.808594 C 251.144531 136.519531 251.210938 136.421875 251.210938 135.125 C 251.210938 131.828125 252.5625 130.046875 255.886719 128.914062 L 257.625 128.300781 L 258.851562 129.175781 C 261.207031 130.792969 262.945312 131.082031 265.367188 130.210938 C 268.234375 129.207031 269.621094 127.492188 270.074219 124.484375 C 270.234375 123.320312 270.042969 121.894531 269.234375 118.273438 C 268.269531 114.097656 268.074219 113.550781 267.492188 113.582031 C 267.140625 113.582031 264.753906 114.097656 262.171875 114.714844 Z M 265.074219 120.214844 C 265.269531 120.667969 265.398438 121.734375 265.398438 122.605469 C 265.398438 123.933594 265.269531 124.289062 264.558594 124.839844 C 262.785156 126.230469 260.882812 125.257812 260.078125 122.542969 C 259.820312 121.636719 259.691406 120.796875 259.785156 120.699219 C 259.914062 120.535156 263.625 119.535156 264.527344 119.40625 C 264.65625 119.40625 264.914062 119.761719 265.074219 120.214844 Z M 265.074219 120.214844 "/>
<path style=" stroke:none;fill-rule:nonzero;fill:rgb(0%,0%,0%);fill-opacity:1;" d="M 262.335938 136.386719 C 257.917969 136.777344 253.851562 137.132812 253.371094 137.132812 L 252.464844 137.164062 L 252.691406 139.332031 C 252.984375 142.4375 253.015625 142.632812 253.175781 142.824219 C 253.273438 142.921875 257.402344 142.632812 262.335938 142.179688 C 267.269531 141.726562 271.589844 141.371094 271.910156 141.371094 C 272.460938 141.371094 272.492188 141.175781 272.332031 139.171875 C 272.039062 135.839844 271.945312 135.546875 271.105469 135.578125 C 270.71875 135.613281 266.785156 135.96875 262.335938 136.386719 Z M 262.335938 136.386719 "/>
<path style=" stroke:none;fill-rule:nonzero;fill:rgb(0%,0%,0%);fill-opacity:1;" d="M 47.566406 147.515625 C 45.082031 149.457031 42.890625 151.042969 42.664062 151.042969 C 42.46875 151.074219 40.179688 149.847656 37.601562 148.359375 L 32.894531 145.609375 L 32.894531 146.675781 C 32.894531 147.257812 32.988281 148.617188 33.085938 149.714844 C 33.28125 151.558594 33.34375 151.691406 34.472656 152.175781 C 35.117188 152.464844 36.34375 153.144531 37.214844 153.628906 L 38.761719 154.570312 L 36.214844 156.476562 L 33.667969 158.417969 L 33.796875 160.972656 C 33.859375 162.398438 33.957031 163.722656 34.019531 163.949219 C 34.117188 164.210938 35.828125 163.109375 38.695312 160.941406 L 43.242188 157.511719 L 44.4375 158.128906 C 45.082031 158.449219 47.339844 159.710938 49.4375 160.910156 C 51.5625 162.105469 53.335938 163.042969 53.402344 162.949219 C 53.464844 162.882812 53.433594 161.523438 53.304688 159.9375 L 53.078125 157.058594 L 50.242188 155.636719 C 46.984375 153.953125 46.953125 154.082031 50.46875 151.691406 L 52.5625 150.265625 L 52.53125 148.488281 C 52.53125 147.515625 52.402344 146.09375 52.304688 145.382812 L 52.078125 144.023438 Z M 47.566406 147.515625 "/>
<path style=" stroke:none;fill-rule:nonzero;fill:rgb(0%,0%,0%);fill-opacity:1;" d="M 268.140625 148.875 L 267.914062 151.074219 L 266.882812 151.074219 C 266.332031 151.074219 263.074219 150.847656 259.625 150.589844 C 256.207031 150.332031 253.273438 150.167969 253.144531 150.265625 C 252.820312 150.460938 252.726562 155.28125 253.046875 155.28125 C 253.175781 155.28125 256.078125 155.507812 259.433594 155.765625 C 262.816406 156.023438 266.042969 156.25 266.65625 156.25 L 267.71875 156.25 L 267.492188 158.386719 C 267.234375 160.941406 267.363281 161.105469 269.976562 161.105469 L 271.78125 161.105469 L 271.976562 159.066406 C 272.300781 155.507812 272.847656 147.128906 272.75 147.03125 C 272.6875 147 271.6875 146.871094 270.492188 146.804688 L 268.363281 146.675781 Z M 268.140625 148.875 "/>
<path style=" stroke:none;fill-rule:nonzero;fill:rgb(0%,0%,0%);fill-opacity:1;" d="M 251.433594 163.59375 C 250.886719 166.441406 250.886719 166.410156 253.175781 167.832031 L 254.371094 168.542969 L 253.628906 171.972656 C 253.242188 173.851562 252.789062 175.46875 252.660156 175.597656 C 252.5625 175.726562 251.628906 175.953125 250.628906 176.148438 L 248.824219 176.46875 L 248.273438 179.058594 C 247.984375 180.480469 247.789062 181.710938 247.855469 181.777344 C 248.015625 181.96875 268.042969 177.992188 268.332031 177.699219 C 268.785156 177.246094 269.460938 172.652344 269.105469 172.523438 C 268.914062 172.457031 266.847656 171.066406 264.527344 169.417969 C 255.367188 163.011719 252.5625 161.105469 252.242188 161.105469 C 252.078125 161.105469 251.726562 162.234375 251.433594 163.59375 Z M 260.882812 172.621094 C 262.140625 173.460938 263.140625 174.171875 263.140625 174.207031 C 263.140625 174.367188 257.917969 175.046875 257.753906 174.886719 C 257.59375 174.722656 258.335938 171.132812 258.527344 171.132812 C 258.59375 171.132812 259.65625 171.8125 260.882812 172.621094 Z M 260.882812 172.621094 "/>
<path style=" stroke:none;fill-rule:nonzero;fill:rgb(0%,0%,0%);fill-opacity:1;" d="M 44.984375 167.542969 C 40.953125 168.511719 37.761719 172.230469 37.214844 176.535156 C 37.050781 177.796875 37.179688 178.800781 37.730469 180.578125 C 38.34375 182.617188 38.695312 183.199219 40.308594 184.785156 C 41.855469 186.304688 42.566406 186.726562 44.46875 187.308594 C 46.4375 187.921875 47.015625 187.953125 48.855469 187.664062 C 55.660156 186.628906 59.527344 179.347656 56.59375 173.203125 C 55.789062 171.519531 54.207031 169.644531 52.886719 168.835938 C 50.726562 167.476562 47.46875 166.960938 44.984375 167.542969 Z M 49.4375 172.878906 C 53.789062 174.691406 53.304688 181.097656 48.695312 182.488281 C 44.628906 183.714844 40.953125 179.316406 42.792969 175.433594 C 43.953125 172.945312 46.886719 171.8125 49.4375 172.878906 Z M 49.4375 172.878906 "/>
<path style=" stroke:none;fill-rule:nonzero;fill:rgb(0%,0%,0%);fill-opacity:1;" d="M 242.246094 191.578125 L 238.953125 198.144531 L 240.632812 199.019531 C 241.566406 199.503906 242.503906 199.890625 242.695312 199.925781 C 242.890625 199.925781 243.890625 198.273438 244.921875 196.269531 C 245.953125 194.296875 246.886719 192.515625 247.015625 192.386719 C 247.242188 192.128906 249.917969 193.292969 249.917969 193.617188 C 249.917969 193.710938 249.210938 195.234375 248.308594 197.011719 C 247.4375 198.792969 246.695312 200.28125 246.695312 200.34375 C 246.695312 200.539062 250.5625 202.316406 250.691406 202.15625 C 250.757812 202.089844 251.5 200.636719 252.335938 198.953125 C 253.175781 197.269531 253.886719 195.847656 253.949219 195.78125 C 254.078125 195.621094 256.367188 196.785156 256.367188 197.011719 C 256.367188 197.109375 255.53125 198.953125 254.464844 201.089844 C 252.371094 205.390625 252.335938 205.066406 255.015625 206.230469 C 255.757812 206.554688 256.433594 206.75 256.496094 206.683594 C 257.046875 206.039062 262.851562 194.003906 262.65625 193.84375 C 262.558594 193.710938 261.171875 192.9375 259.65625 192.128906 C 257.238281 190.800781 256.851562 190.511719 256.949219 189.832031 C 257.011719 189.183594 256.722656 188.925781 255.207031 188.179688 C 253.5 187.339844 253.371094 187.308594 252.984375 187.855469 C 252.5625 188.40625 252.335938 188.34375 249.144531 186.726562 C 247.242188 185.820312 245.695312 185.042969 245.628906 185.042969 C 245.597656 185.042969 244.082031 187.988281 242.246094 191.578125 Z M 242.246094 191.578125 "/>
<path style=" stroke:none;fill-rule:nonzero;fill:rgb(0%,0%,0%);fill-opacity:1;" d="M 58.207031 193.257812 C 55.5625 193.679688 51.402344 194.261719 49.015625 194.585938 C 42.535156 195.460938 42.984375 195.136719 44.566406 197.757812 C 45.757812 199.730469 45.984375 199.957031 46.726562 199.828125 C 49.304688 199.308594 58.078125 198.242188 58.238281 198.402344 C 58.335938 198.5 56.59375 200.734375 54.371094 203.351562 L 50.304688 208.109375 L 51.46875 210.242188 C 52.113281 211.40625 52.757812 212.507812 52.886719 212.636719 C 53.144531 212.929688 66.269531 197.496094 66.269531 196.914062 C 66.269531 196.140625 64.011719 192.484375 63.527344 192.515625 C 63.269531 192.546875 60.882812 192.871094 58.207031 193.257812 Z M 58.207031 193.257812 "/>
<path style=" stroke:none;fill-rule:nonzero;fill:rgb(0%,0%,0%);fill-opacity:1;" d="M 202.191406 213.511719 C 198.644531 214.253906 195.128906 217.070312 193.453125 220.53125 C 192.777344 221.890625 192.679688 222.570312 192.679688 225.640625 C 192.679688 228.972656 192.742188 229.296875 193.648438 230.949219 C 195.128906 233.664062 196.839844 235.378906 199.226562 236.542969 C 201.226562 237.546875 201.613281 237.613281 204.609375 237.613281 C 207.609375 237.613281 207.996094 237.546875 209.996094 236.542969 C 214.285156 234.441406 216.898438 230.203125 216.832031 225.480469 C 216.800781 222.699219 216.253906 221.046875 214.609375 218.558594 C 212.09375 214.742188 206.738281 212.574219 202.191406 213.511719 Z M 206.480469 219.691406 C 209.382812 220.5 211.382812 224.089844 210.578125 227.066406 C 210.191406 228.554688 208.675781 230.460938 207.320312 231.175781 C 205.996094 231.851562 202.902344 231.757812 201.675781 231.011719 C 199.582031 229.75 198.066406 226.742188 198.484375 224.738281 C 199.03125 222.214844 200.355469 220.53125 202.417969 219.785156 C 203.933594 219.269531 204.902344 219.238281 206.480469 219.691406 Z M 206.480469 219.691406 "/>
<path style=" stroke:none;fill-rule:nonzero;fill:rgb(0%,0%,0%);fill-opacity:1;" d="M 95.453125 225.640625 L 95.453125 237.515625 L 101.515625 237.386719 C 106.804688 237.257812 107.773438 237.160156 109.351562 236.542969 C 111.800781 235.574219 113.800781 233.730469 115.15625 231.238281 C 116.21875 229.265625 116.253906 229.105469 116.253906 225.480469 C 116.253906 221.921875 116.21875 221.664062 115.1875 219.59375 C 114.027344 217.230469 112.640625 215.90625 110.0625 214.707031 C 108.675781 214.0625 107.902344 213.996094 102 213.898438 L 95.453125 213.769531 Z M 107.933594 220.820312 C 109.253906 221.792969 110.125 223.734375 110.09375 225.640625 C 110.0625 227.617188 109.382812 229.039062 107.835938 230.234375 C 106.867188 230.949219 106.257812 231.140625 104.449219 231.238281 L 102.226562 231.367188 L 102.226562 219.917969 L 104.609375 220.046875 C 106.386719 220.109375 107.253906 220.335938 107.933594 220.820312 Z M 107.933594 220.820312 "/>
<path style=" stroke:none;fill-rule:nonzero;fill:rgb(0%,0%,0%);fill-opacity:1;" d="M 121.574219 218.203125 L 121.574219 222.570312 L 120.765625 222.570312 C 119.929688 222.570312 119.929688 222.570312 120.027344 225.222656 C 120.121094 227.710938 120.1875 227.90625 120.832031 228.003906 C 121.542969 228.101562 121.574219 228.230469 121.636719 232.695312 L 121.734375 237.289062 L 129.378906 237.386719 L 137.019531 237.449219 L 136.375 238.550781 C 135.246094 240.492188 136.148438 241.980469 138.761719 242.433594 L 139.953125 242.660156 L 139.953125 241.363281 C 139.953125 240.199219 139.859375 240.070312 139.085938 239.972656 C 137.890625 239.84375 137.632812 238.355469 138.632812 237.707031 C 139.246094 237.351562 139.308594 236.964844 139.308594 234.636719 L 139.308594 231.949219 L 128.667969 231.949219 L 128.667969 228.101562 L 133.117188 228.003906 L 137.535156 227.90625 L 137.632812 225.222656 L 137.730469 222.570312 L 128.667969 222.570312 L 128.667969 219.332031 L 139.308594 219.332031 L 139.308594 213.835938 L 121.574219 213.835938 Z M 121.574219 218.203125 "/>
<path style=" stroke:none;fill-rule:nonzero;fill:rgb(0%,0%,0%);fill-opacity:1;" d="M 144.792969 218.167969 L 144.792969 222.570312 L 143.984375 222.570312 C 143.179688 222.570312 143.179688 222.601562 143.179688 225.15625 C 143.179688 227.710938 143.179688 227.746094 143.984375 227.746094 L 144.792969 227.746094 L 144.792969 237.515625 L 151.660156 237.386719 C 158.140625 237.257812 158.59375 237.191406 160.304688 236.414062 C 162.59375 235.347656 163.785156 233.859375 164.042969 231.660156 C 164.367188 228.84375 163.109375 226.417969 160.820312 225.351562 L 159.914062 224.929688 L 160.753906 224.378906 C 161.820312 223.703125 162.816406 221.5 162.851562 219.980469 C 162.851562 218.007812 161.625 216.132812 159.625 215 L 157.851562 213.996094 L 151.339844 213.898438 L 144.792969 213.800781 Z M 156.078125 219.398438 C 156.882812 220.273438 156.882812 220.660156 156.109375 221.628906 C 155.59375 222.277344 155.207031 222.40625 153.433594 222.40625 L 151.402344 222.40625 L 151.304688 220.53125 L 151.210938 218.6875 L 153.304688 218.6875 C 155.046875 218.6875 155.53125 218.816406 156.078125 219.398438 Z M 155.851562 228.101562 C 157.335938 228.488281 157.882812 229.460938 157.402344 230.722656 C 157.015625 231.789062 155.304688 232.371094 153.015625 232.210938 L 151.402344 232.113281 L 151.304688 230.367188 C 151.242188 229.425781 151.273438 228.425781 151.371094 228.199219 C 151.597656 227.648438 154.078125 227.582031 155.851562 228.101562 Z M 155.851562 228.101562 "/>
<path style=" stroke:none;fill-rule:nonzero;fill:rgb(0%,0%,0%);fill-opacity:1;" d="M 168.011719 225.640625 L 168.011719 237.449219 L 173.816406 237.449219 L 173.816406 231.140625 C 173.816406 227.679688 173.945312 224.832031 174.105469 224.832031 C 174.265625 224.832031 176.523438 226.902344 179.167969 229.460938 C 186.648438 236.707031 187.808594 237.742188 188.261719 237.773438 C 188.550781 237.773438 188.648438 235.152344 188.648438 225.804688 L 188.648438 213.835938 L 182.554688 213.835938 L 182.457031 218.523438 L 182.359375 223.214844 L 177.523438 218.523438 L 172.6875 213.867188 L 170.363281 213.835938 L 168.011719 213.835938 Z M 168.011719 225.640625 "/>
</g>
</svg>
